<?xml version="1.0" standalone="no"?>
<!DOCTYPE svg PUBLIC "-//W3C//DTD SVG 20010904//EN"
 "http://www.w3.org/TR/2001/REC-SVG-20010904/DTD/svg10.dtd">
<svg version="1.0" xmlns="http://www.w3.org/2000/svg"
 width="260.000000pt" height="260.000000pt" viewBox="0 0 260.000000 260.000000"
 preserveAspectRatio="xMidYMid meet">
<metadata>
Created by potrace 1.11, written by Peter Selinger 2001-2013
</metadata>
<g transform="translate(0.000000,260.000000) scale(0.100000,-0.100000)"
fill="#000000" stroke="none">
<path d="M0 1300 l0 -1300 1300 0 1300 0 0 1300 0 1300 -1300 0 -1300 0 0
-1300z m790 128 c0 -6 9 -3 19 6 46 42 148 6 122 -43 -10 -17 -20 -20 -58 -18
-41 2 -48 -1 -60 -23 -7 -15 -13 -60 -13 -110 0 -91 -8 -110 -47 -110 -35 0
-43 30 -43 164 0 113 2 128 20 146 16 16 25 18 40 10 11 -6 20 -16 20 -22z
m408 -11 c37 -34 52 -71 52 -127 0 -57 -15 -93 -55 -130 -37 -35 -145 -41
-193 -10 -38 24 -72 89 -72 140 0 47 32 115 65 136 58 38 158 33 203 -9z m336
14 c48 -26 69 -65 73 -128 7 -106 -52 -173 -154 -173 -99 0 -152 49 -160 148
-3 43 0 66 14 91 43 81 144 109 227 62z m197 -58 c12 -38 29 -84 37 -103 l14
-35 40 108 c38 101 42 107 69 107 18 0 30 -6 34 -19 5 -18 -84 -261 -107 -288
-6 -7 -23 -13 -38 -13 -15 0 -32 6 -37 13 -5 6 -34 72 -63 146 l-53 134 22 18
c34 28 56 10 82 -68z m492 39 c43 -41 55 -112 23 -134 -6 -4 -53 -8 -103 -8
-82 0 -93 -2 -93 -18 0 -63 82 -84 139 -36 60 50 98 3 41 -51 -29 -28 -36 -30
-110 -30 -79 0 -80 0 -117 38 -38 37 -38 38 -38 117 0 76 1 80 34 114 59 61
165 64 224 8z m-1686 19 c31 -19 31 -19 36 0 7 26 53 26 67 0 5 -11 10 -85 10
-168 0 -170 -11 -206 -70 -235 -69 -35 -188 -17 -224 33 -20 29 -20 34 0 53
21 22 29 20 64 -14 56 -55 140 -34 140 35 l0 32 -40 -19 c-102 -51 -206 48
-186 176 18 107 116 160 203 107z"/>
<path d="M1041 1364 c-31 -39 -29 -117 4 -149 61 -62 139 4 120 101 -13 73
-84 99 -124 48z"/>
<path d="M1401 1364 c-15 -19 -21 -41 -21 -74 0 -87 67 -131 118 -77 32 34 31
125 -1 155 -32 30 -71 28 -96 -4z"/>
<path d="M2066 1368 c-29 -41 -21 -48 49 -48 70 0 78 7 49 48 -10 15 -25 22
-49 22 -24 0 -39 -7 -49 -22z"/>
<path d="M445 1365 c-37 -36 -32 -130 9 -157 21 -14 66 -8 86 12 31 31 28 113
-5 145 -13 14 -33 25 -45 25 -11 0 -32 -11 -45 -25z"/>
</g>
</svg>
